<?xml version="1.0"?>
<svg xmlns="http://www.w3.org/2000/svg" xmlns:xlink="http://www.w3.org/1999/xlink" viewBox="0 0 15 15" class="" role="presentation" focusable="false" id="FxSymbol0-014" data-type="1" width="70" height="70">
  <g>
    <title/>
    <path d="M11.4 12.3V.6H1.5v11.7h9.9Z" class="msportalfx-svg-c15" fill="#59b4d9"/>
    <path opacity=".8" d="M10.8 11.7V1.2H2.1v10.5h8.7Z" class="msportalfx-svg-c01" fill="#ffffff"/>
    <path d="M9.6 2.4H3.3V3h6.3v-.6ZM8.4 3.9H3.3v.6h5.1v-.6Zm0 3H3.3v.6h5.1v-.6Zm0 3H3.3v.6h5.1v-.6Zm1.2-4.5H3.3V6h6.3v-.6Zm0 3H3.3V9h6.3v-.6Z" class="msportalfx-svg-c15" fill="#59b4d9"/>
    <path d="M12.49 10.488a2.135 2.135 0 0 1-1.404.539c-.538 0-1.03-.211-1.404-.539l-.21 4.212 1.59-1.615 1.591 1.615-.163-4.212Z" class="msportalfx-svg-c17" fill="#804998"/>
    <path d="M11.11 11.728a2.714 2.714 0 1 0 0-5.428 2.714 2.714 0 0 0 0 5.428Z" class="msportalfx-svg-c09" fill="#dd5900"/>
    <path d="M11.11 11.073a2.06 2.06 0 1 0 0-4.118 2.06 2.06 0 0 0 0 4.118Z" class="msportalfx-svg-c10" fill="#ff8c00"/>
    <path opacity=".15" d="M9.167 10.956a2.725 2.725 0 0 1 0-3.837 2.726 2.726 0 0 1 3.837 0l-3.837 3.837Z" class="msportalfx-svg-c01" fill="#ffffff"/>
  </g>
  <defs>
</defs>
</svg>
